<?xml version="1.0" encoding="UTF-8"?>
<svg id="Capa_1" xmlns="http://www.w3.org/2000/svg" version="1.1" viewBox="0 0 500 500">
  <!-- Generator: Adobe Illustrator 29.0.0, SVG Export Plug-In . SVG Version: 2.1.0 Build 186)  -->
  <defs>
    <style>
      .st0, .st1 {
        fill: #4a98f5;
      }

      .st2 {
        stroke-width: 3.1px;
      }

      .st2, .st3, .st4, .st1, .st5, .st6, .st7 {
        stroke: #263238;
      }

      .st2, .st3, .st8, .st7 {
        fill: none;
      }

      .st2, .st4, .st1, .st8, .st5, .st6, .st7 {
        stroke-linecap: round;
        stroke-linejoin: round;
      }

      .st3 {
        stroke-miterlimit: 10;
      }

      .st3, .st4, .st1, .st8, .st5, .st6, .st7 {
        stroke-width: 1px;
      }

      .st4, .st9 {
        fill: #263238;
      }

      .st10 {
        fill: #b8b8b8;
      }

      .st11 {
        opacity: .5;
      }

      .st11, .st12, .st13 {
        isolation: isolate;
      }

      .st11, .st5, .st13 {
        fill: #fff;
      }

      .st8 {
        stroke: #fff;
      }

      .st12 {
        opacity: .3;
      }

      .st9 {
        display: none;
      }

      .st6 {
        fill: #737373;
      }

      .st13 {
        opacity: .8;
      }
    </style>
  </defs>
  <g id="freepik--background-simple--inject-67">
    <path class="st0" d="M81.9,305.6s25,57,88.2,75.6,130.7-6.2,185.9-24.9,84.2-66.4,71.9-115.4-58.8-45.4-102.1-88.9-48.3-61.6-108.3-74.4-125.8,37.7-142.2,109.3,6.7,118.6,6.7,118.6Z"/>
    <path class="st13" d="M81.9,305.6s25,57,88.2,75.6,130.7-6.2,185.9-24.9,84.2-66.4,71.9-115.4-58.8-45.4-102.1-88.9-48.3-61.6-108.3-74.4-125.8,37.7-142.2,109.3,6.7,118.6,6.7,118.6Z"/>
  </g>
  <g id="freepik--Trees--inject-67">
    <path class="st0" d="M403,228.6s22.9,2.3,34.5,16.5c0,0,12.3-16.5,34.3-16.1,15.7-18.9,13.1-47-5.9-62.7-18.9-15.7-47-13.1-62.7,5.9-13.6,16.4-13.7,40-.3,56.5h0Z"/>
    <path class="st11" d="M403,228.6s22.9,2.3,34.5,16.5c0,0,12.3-16.5,34.3-16.1,15.7-18.9,13.1-47-5.9-62.7-18.9-15.7-47-13.1-62.7,5.9-13.6,16.4-13.7,40-.3,56.5h0Z"/>
    <polygon class="st10" points="436.8 159.1 436 307.7 439.9 307.7 436.8 159.1"/>
    <path class="st10" d="M437.9,240.8s7.7-13.9,21.7-18.2c0,0-14.7,3.5-22,15.5l.3,2.7Z"/>
    <path class="st10" d="M437.9,201.3s7.7-13.9,21.7-18.2c0,0-14.7,3.5-22,15.5l.3,2.7Z"/>
    <path class="st10" d="M437.9,221s7.7-13.9,21.7-18.2c0,0-14.7,3.5-22,15.5l.3,2.7Z"/>
    <path class="st10" d="M436.8,211.3s-7.5-13.9-20.9-18.2c0,0,14.2,3.5,21.3,15.5l-.4,2.7Z"/>
    <path class="st10" d="M436.8,230.7s-7.5-13.9-20.9-18.2c0,0,14.2,3.5,21.3,15.5l-.4,2.7Z"/>
    <path class="st0" d="M27.9,228.6s22.9,2.3,34.5,16.5c0,0,12.3-16.5,34.3-16.1,15.7-18.9,13.1-47-5.9-62.7-18.9-15.7-47-13.1-62.7,5.9-13.6,16.4-13.7,40-.3,56.5h0Z"/>
    <path class="st11" d="M27.9,228.6s22.9,2.3,34.5,16.5c0,0,12.3-16.5,34.3-16.1,15.7-18.9,13.1-47-5.9-62.7-18.9-15.7-47-13.1-62.7,5.9-13.6,16.4-13.7,40-.3,56.5h0Z"/>
    <polygon class="st10" points="61.7 159.1 60.9 307.7 64.7 307.7 61.7 159.1"/>
    <path class="st10" d="M62.8,240.8s7.7-13.9,21.7-18.2c0,0-14.7,3.5-22,15.5l.3,2.7Z"/>
    <path class="st10" d="M62.8,201.3s7.7-13.9,21.7-18.2c0,0-14.7,3.5-22,15.5l.3,2.7Z"/>
    <path class="st10" d="M62.8,221s7.7-13.9,21.7-18.2c0,0-14.7,3.5-22,15.5l.3,2.7Z"/>
    <path class="st10" d="M61.7,211.3s-7.5-13.9-20.9-18.2c0,0,14.2,3.5,21.3,15.5l-.4,2.7Z"/>
    <path class="st10" d="M61.7,230.7s-7.5-13.9-20.9-18.2c0,0,14.2,3.5,21.3,15.5l-.4,2.7Z"/>
    <path class="st0" d="M309.9,243s18.8,1.9,28.3,13.5c0,0,10-13.5,28.1-13.2,12.8-15.5,10.7-38.5-4.8-51.3-15.5-12.8-38.5-10.7-51.3,4.8-11.1,13.4-11.2,32.8-.2,46.3h0Z"/>
    <path class="st11" d="M309.9,243s18.8,1.9,28.3,13.5c0,0,10-13.5,28.1-13.2,12.8-15.5,10.7-38.5-4.8-51.3-15.5-12.8-38.5-10.7-51.3,4.8-11.1,13.4-11.2,32.8-.2,46.3h0Z"/>
    <polygon class="st10" points="337.5 186.1 336.9 307.7 340 307.7 337.5 186.1"/>
    <path class="st10" d="M338.5,252.9s6.3-11.4,17.7-14.9c0,0-12,2.9-18,12.7l.3,2.2Z"/>
    <path class="st10" d="M338.5,220.6s6.3-11.4,17.7-14.9c0,0-12,2.9-18,12.7l.3,2.2Z"/>
    <path class="st10" d="M338.5,236.8s6.3-11.4,17.7-14.9c0,0-12,2.9-18,12.7l.3,2.2Z"/>
    <path class="st10" d="M337.5,228.8s-6.1-11.4-17.1-14.9c0,0,11.6,2.9,17.4,12.7l-.3,2.2Z"/>
    <path class="st10" d="M337.5,244.7s-6.1-11.4-17.1-14.9c0,0,11.6,2.9,17.4,12.7l-.3,2.2Z"/>
    <path class="st0" d="M128.4,243s18.8,1.9,28.3,13.5c0,0,10-13.5,28.1-13.2,12.8-15.5,10.7-38.5-4.8-51.3-15.5-12.8-38.5-10.7-51.3,4.8-11.1,13.4-11.2,32.8-.2,46.3h0Z"/>
    <path class="st11" d="M128.4,243s18.8,1.9,28.3,13.5c0,0,10-13.5,28.1-13.2,12.8-15.5,10.7-38.5-4.8-51.3-15.5-12.8-38.5-10.7-51.3,4.8-11.1,13.4-11.2,32.8-.2,46.3h0Z"/>
    <polygon class="st10" points="156 186.1 155.4 307.7 158.5 307.7 156 186.1"/>
    <path class="st10" d="M157,252.9s6.3-11.4,17.7-14.9c0,0-12,2.9-18,12.7l.3,2.2Z"/>
    <path class="st10" d="M157,220.6s6.3-11.4,17.7-14.9c0,0-12,2.9-18,12.7l.3,2.2Z"/>
    <path class="st10" d="M157,236.8s6.3-11.4,17.7-14.9c0,0-12,2.9-18,12.7l.3,2.2Z"/>
    <path class="st10" d="M156,228.8s-6.1-11.4-17.1-14.8c0,0,11.6,2.9,17.4,12.7l-.3,2.2Z"/>
    <path class="st10" d="M156,244.7s-6.1-11.4-17.1-14.9c0,0,11.6,2.9,17.4,12.7l-.3,2.2Z"/>
    <line class="st3" x1="34.8" y1="308.2" x2="466.3" y2="308.2"/>
  </g>
  <g id="freepik--Text--inject-67">
    <path class="st9" d="M188.5,120.7c0-7.7,4.1-12.2,11.5-12.2s11.5,4.4,11.5,12.2v25.1c0,7.7-4.1,12.1-11.5,12.1s-11.5-4.4-11.5-12.1v-25.1ZM196.1,146.3c0,3.4,1.5,4.8,3.9,4.8s3.9-1.3,3.9-4.8v-26.1c0-3.4-1.5-4.8-3.9-4.8s-3.9,1.3-3.9,4.8v26.1Z"/>
    <path class="st9" d="M217.3,120.7c0-7.7,4.1-12.2,11.5-12.2s11.5,4.4,11.5,12.2v25.1c0,7.7-4.1,12.1-11.5,12.1s-11.5-4.4-11.5-12.1v-25.1ZM224.9,146.3c0,3.4,1.5,4.8,3.9,4.8s3.9-1.3,3.9-4.8v-26.1c0-3.4-1.5-4.8-3.9-4.8s-3.9,1.3-3.9,4.8v26.1Z"/>
    <path class="st9" d="M269.2,121.1v6.3c0,7.7-3.7,12-11.3,12h-3.6v18.2h-7.6v-48.4h11.2c7.6,0,11.3,4.2,11.3,11.9ZM254.3,116.1v16.4h3.6c2.4,0,3.7-1.1,3.7-4.6v-7.2c0-3.5-1.3-4.6-3.7-4.6h-3.6Z"/>
    <path class="st9" d="M284.8,108.6c7.4,0,11.2,4.4,11.2,12.2v1.5h-7.2v-2c0-3.4-1.4-4.8-3.8-4.8s-3.8,1.3-3.8,4.8c0,9.9,14.9,11.8,14.9,25.6s-3.9,12.1-11.3,12.1-11.3-4.4-11.3-12.1v-3h7.2v3.4c0,3.4,1.5,4.7,3.9,4.7s3.9-1.2,3.9-4.7c0-9.9-14.8-11.8-14.8-25.6,0-7.7,3.8-12.1,11.2-12.1Z"/>
    <path class="st9" d="M302.8,146.8l-1-17.5v-20.2h7.6v20.2l-1,17.5h-5.6ZM309.3,150.1v7.3h-7.3v-7.3h7.3Z"/>
    <path class="st9" d="M172.1,412.2c3.6,0,5.1,2.1,5.1,5.5v2.7c0,3.6-1.7,5.5-5.3,5.5h-2.2v8.9h-2.5v-22.7h5ZM171.9,423.6c1.9,0,2.8-.9,2.8-3v-3c0-2.1-.8-3.1-2.6-3.1h-2.4v9.2h2.2Z"/>
    <path class="st9" d="M182.1,430.3l-.9,4.6h-2.3l4.3-22.7h3.7l4.3,22.7h-2.5l-.9-4.6h-5.7ZM182.4,428.1h5.1l-2.6-13.1-2.5,13.1Z"/>
    <path class="st9" d="M203.8,417.6v1.9h-2.4v-2.1c0-2-.8-3.3-2.6-3.3s-2.6,1.2-2.6,3.3v12c0,2,.8,3.3,2.6,3.3s2.6-1.2,2.6-3.3v-4.5h-2.3v-2.3h4.7v6.7c0,3.4-1.6,5.7-5.1,5.7s-5.1-2.3-5.1-5.7v-11.8c0-3.4,1.6-5.7,5.1-5.7s5.1,2.3,5.1,5.7Z"/>
    <path class="st9" d="M214.9,422.2v2.3h-5.5v8.1h6.8v2.3h-9.3v-22.7h9.3v2.3h-6.8v7.7h5.5Z"/>
    <path class="st9" d="M227.1,434.8h-2.3v-22.7h3.2l5.2,16.4v-16.4h2.2v22.7h-2.6l-5.8-18.3v18.3Z"/>
    <path class="st9" d="M238.5,417.6c0-3.5,1.7-5.7,5.2-5.7s5.2,2.2,5.2,5.7v11.7c0,3.4-1.7,5.7-5.2,5.7s-5.2-2.3-5.2-5.7v-11.7ZM241,429.5c0,2.1.9,3.3,2.7,3.3s2.7-1.2,2.7-3.3v-12c0-2-.8-3.3-2.7-3.3s-2.7,1.2-2.7,3.3v12Z"/>
    <path class="st9" d="M255.2,434.8v-20.4h-4.2v-2.3h10.9v2.3h-4.2v20.4h-2.5Z"/>
    <path class="st9" d="M277.7,422.7v2.3h-5.2v9.8h-2.5v-22.6h9v2.3h-6.5v8.2h5.2Z"/>
    <path class="st9" d="M281.5,417.6c0-3.5,1.7-5.7,5.2-5.7s5.2,2.2,5.2,5.7v11.7c0,3.4-1.7,5.7-5.2,5.7s-5.2-2.3-5.2-5.7v-11.7ZM284,429.5c0,2.1.9,3.3,2.7,3.3s2.7-1.2,2.7-3.3v-12c0-2-.8-3.3-2.7-3.3s-2.7,1.2-2.7,3.3v12Z"/>
    <path class="st9" d="M297.3,429.5c0,2,.8,3.3,2.6,3.3s2.6-1.2,2.6-3.3v-17.3h2.4v17.2c0,3.4-1.6,5.7-5.1,5.7s-5-2.3-5-5.7v-17.2h2.5v17.3Z"/>
    <path class="st9" d="M310.3,434.8h-2.3v-22.7h3.2l5.2,16.4v-16.4h2.2v22.7h-2.6l-5.8-18.3v18.3Z"/>
    <path class="st9" d="M327.3,412.2c3.5,0,5.1,2.1,5.1,5.6v11.4c0,3.5-1.6,5.6-5.1,5.6h-5.3v-22.7h5.3ZM327.3,432.5c1.8,0,2.7-1.1,2.7-3.2v-11.7c0-2.1-.9-3.2-2.7-3.2h-2.7v18.1h2.8Z"/>
  </g>
  <g>
    <path d="M206.4,156.5c-2.1-2.4-3.1-6-3.1-10.7v-37.7h10v37.3c0,1.6.2,2.9.5,3.8.3.9,1,1.4,2,1.4s1.7-.5,2-1.4c.3-.9.5-2.2.5-3.9v-37.3h10v37.7c0,4.7-1,8.3-3.1,10.7-2.1,2.4-5.2,3.6-9.4,3.6s-7.4-1.2-9.5-3.6Z"/>
    <path d="M232.4,108.1h13.6c4.1,0,7.1,1.3,8.8,4,1.8,2.7,2.6,6.5,2.6,11.7s-.8,9-2.3,11.6c-1.6,2.6-4.4,3.9-8.4,3.9h-4.2v20.4h-10.1v-51.5ZM243.1,129.9c1.2,0,2.1-.2,2.7-.7.6-.5,1-1.1,1.1-2,.2-.9.3-2.1.3-3.7s-.2-3.7-.7-4.7-1.4-1.4-2.9-1.4h-1.1v12.5h.6Z"/>
    <path d="M262.8,156.6c-2.1-2.3-3.1-6.1-3.1-11.2v-5h10.1v6.4c0,2.6.8,3.8,2.5,3.8s1.6-.3,1.9-.8.5-1.4.5-2.7-.2-3.1-.6-4.2c-.4-1.1-.9-2-1.5-2.8-.6-.7-1.7-1.9-3.3-3.4l-4.4-4.4c-3.4-3.4-5.2-7.1-5.2-11.2s1-7.7,3-10c2-2.3,5-3.5,8.9-3.5s8,1.2,10,3.7,3.1,6.3,3.1,11.5h-10.5v-3.5c0-.7-.3-1.2-.6-1.6-.4-.4-.9-.6-1.6-.6s-1.4.2-1.8.7c-.4.4-.6,1-.6,1.8,0,1.7,1,3.4,2.9,5.2l6,5.8c1.4,1.4,2.6,2.7,3.5,3.9.9,1.2,1.7,2.7,2.2,4.3.6,1.7.8,3.6.8,5.9,0,5.1-.9,8.9-2.8,11.5-1.9,2.6-4.9,3.9-9.2,3.9s-8.1-1.2-10.1-3.5Z"/>
    <path d="M289.7,145.6l-2-37.5h10.5l-2.1,37.5h-6.4ZM287.7,159.6v-8.8h10.5v8.8h-10.5Z"/>
  </g>
  <g>
    <path d="M131.2,405.1h4c1.3,0,2.3.1,3.1.4s1.5.8,2,1.6.8,1.8.8,2.9-.2,2-.7,2.7-1,1.3-1.8,1.6-1.9.5-3.4.5h-1.4v6.2h-2.6v-16ZM133.8,407.1v5.6h1.3c1.2,0,2-.2,2.4-.7s.7-1.1.7-2.1-.1-1.3-.4-1.8-.6-.7-1-.8-.9-.2-1.7-.2h-1.3Z"/>
    <path d="M146.1,405.1h3l4.3,16h-2.7l-1-4h-4.7l-1,4h-2.5l4.6-16ZM149.1,415l-1.8-7.3-1.8,7.3h3.7ZM145.7,402.8l3.8-3.3,1.3,1.6-4.1,2.6-.9-.9Z"/>
    <path d="M160.3,412.9h5.3v8.3h-1.4l-.4-2c-.8,1.5-2.1,2.2-3.8,2.2s-3.2-.7-4.2-2.2c-1-1.4-1.5-3.4-1.5-5.9s.5-4.7,1.5-6.2c1-1.5,2.5-2.3,4.6-2.3s4.6,1.6,5.2,4.9l-2.4.6c-.3-1.4-.7-2.3-1.1-2.7s-1-.6-1.7-.6c-2.1,0-3.2,2-3.2,6.1s1.1,6.1,3.3,6.1,2.7-1.4,2.7-4.2h-2.9v-2.1Z"/>
    <path d="M168.4,405.1h2.6v16h-2.6v-16Z"/>
    <path d="M174,405.1h3.1l5.3,11.5v-11.5h2.2v16h-2.5l-5.9-12.8v12.8h-2.2v-16Z"/>
    <path d="M190.9,405.1h3l4.3,16h-2.7l-1-4h-4.7l-1,4h-2.5l4.6-16ZM194,415l-1.8-7.3-1.8,7.3h3.7Z"/>
    <path d="M204.2,405.1h3.1l5.3,11.5v-11.5h2.2v16h-2.5l-5.9-12.8v12.8h-2.2v-16Z"/>
    <path d="M228.7,413.1c0,2.7-.5,4.8-1.5,6.2s-2.4,2.1-4.3,2.1-3.3-.7-4.3-2.1-1.5-3.5-1.5-6.2.5-4.8,1.5-6.2,2.4-2.1,4.3-2.1,3.3.7,4.3,2.1,1.5,3.5,1.5,6.2ZM225.9,413.1c0-1.9-.2-3.4-.7-4.5-.4-1.1-1.2-1.6-2.3-1.6s-1.9.5-2.3,1.6c-.4,1.1-.7,2.6-.7,4.5s.2,3.3.6,4.5,1.2,1.7,2.4,1.7,1.8-.5,2.3-1.6.7-2.6.7-4.5Z"/>
    <path d="M235.7,405.1h9.2v2.1h-6.5v4.6h5.1v2.1h-5.1v5h6.6v2.2h-9.3v-16Z"/>
    <path d="M246.7,405.1h3.1l5.3,11.5v-11.5h2.2v16h-2.5l-5.9-12.8v12.8h-2.2v-16Z"/>
    <path d="M268.3,415.7l2.4.3c-.5,3.6-2.2,5.3-5.2,5.3s-3.4-.7-4.3-2.2-1.4-3.5-1.4-6,.5-4.8,1.5-6.2,2.5-2.2,4.4-2.2c2.9,0,4.7,1.8,5.2,5.5l-2.5.4c-.3-2.4-1.2-3.6-2.7-3.6s-3.1,2.1-3.1,6.3,1,5.9,3.1,5.9,1.4-.3,1.8-.9c.4-.6.7-1.5.9-2.6Z"/>
    <path d="M283.9,413.1c0,2.7-.5,4.8-1.5,6.2s-2.4,2.1-4.3,2.1-3.3-.7-4.3-2.1-1.5-3.5-1.5-6.2.5-4.8,1.5-6.2,2.4-2.1,4.3-2.1,3.3.7,4.3,2.1,1.5,3.5,1.5,6.2ZM281.1,413.1c0-1.9-.2-3.4-.7-4.5-.4-1.1-1.2-1.6-2.3-1.6s-1.9.5-2.3,1.6c-.4,1.1-.7,2.6-.7,4.5s.2,3.3.6,4.5,1.2,1.7,2.4,1.7,1.8-.5,2.3-1.6.7-2.6.7-4.5Z"/>
    <path d="M286.3,405.1h3.1l5.3,11.5v-11.5h2.2v16h-2.5l-5.9-12.8v12.8h-2.2v-16Z"/>
    <path d="M298,405.1h9.8v2.2h-3.6v13.7h-2.6v-13.7h-3.6v-2.2Z"/>
    <path d="M308.9,405.1h4.8c1.7,0,3,.4,3.9,1.2s1.2,1.9,1.2,3.4-.8,3.4-2.4,4.2l3,7.2h-2.9l-2.5-6.7h-2.5v6.7h-2.6v-16ZM311.5,407.1v5.2h2c.9,0,1.6-.2,2-.8s.6-1.2.6-2c0-1.7-.9-2.5-2.6-2.5h-2.1Z"/>
    <path d="M324.6,405.1h3l4.3,16h-2.7l-1-4h-4.7l-1,4h-2.5l4.6-16ZM327.6,415l-1.8-7.3-1.8,7.3h3.7Z"/>
    <path d="M333.4,405.1h3.6c1.7,0,3.1.3,4.2.9,1,.6,1.8,1.5,2.4,2.8s.8,2.6.8,4.1-.2,3-.7,4.2c-.5,1.2-1.2,2.2-2.2,3s-2.4,1.1-4.2,1.1h-3.8v-16ZM336.1,407.2v11.8h1.1c1.5,0,2.7-.5,3.4-1.6.7-1.1,1-2.5,1-4.3,0-3.9-1.5-5.9-4.4-5.9h-1.1Z"/>
    <path d="M349.6,405.1h3l4.3,16h-2.7l-1-4h-4.7l-1,4h-2.5l4.6-16ZM352.6,415l-1.8-7.3-1.8,7.3h3.7Z"/>
  </g>
  <g id="freepik--Characters--inject-67">
    <path class="st12" d="M152.6,356.5c0,3-18.4,5.4-41.2,5.4s-41.2-2.4-41.2-5.4,18.4-5.4,41.2-5.4,41.2,2.4,41.2,5.4Z"/>
    <path class="st12" d="M238.8,356.5c0,3-18.4,5.4-41.2,5.4s-41.2-2.4-41.2-5.4,18.4-5.4,41.2-5.4,41.2,2.4,41.2,5.4Z"/>
    <path class="st12" d="M353,356.5c0,3-18.4,5.4-41.2,5.4s-41.2-2.4-41.2-5.4,18.4-5.4,41.2-5.4,41.2,2.4,41.2,5.4Z"/>
    <path class="st12" d="M448.4,356.5c0,3-18.4,5.4-41.2,5.4s-41.2-2.4-41.2-5.4,18.4-5.4,41.2-5.4,41.2,2.4,41.2,5.4Z"/>
    <path class="st5" d="M316.3,198.8s-1.7,7-1.7,8.2c0,.7,0,1.5-.2,2.2,0,0-3.6,4.3-3.1,5.5.6.9,1.4,1.7,2.4,2.2,0,0,1.9,7,3.9,7.5,2,.4,4,.6,6,.7l.7,5.8,9.6-1.4-2.4-8.7,1-7.5s1.7-3.1,0-8.2-5.3-5.3-7.7-5.3c-2.8-.2-5.6-.5-8.4-1Z"/>
    <path class="st4" d="M320.6,195.2s-8.4-.2-8.2,1.9,8.9,5,8.9,5c0,0-2.9,1.9-1.5,3.9s4.8,3.6,4.8,3.6c0,0-1,4.1.5,4.3s2.4-1.9,2.6-2.6,2.9-.5,3.6,1.4c.4,1,.7,2.1.7,3.1,0,0,2.9-8.7,3.4-12.5s-10.3-8.1-14.9-8.1Z"/>
    <path class="st5" d="M325.9,214s2.9-6.4,4.6-3.2,1,6.4-.7,6.8-3.1.7-3.1.7"/>
    <path class="st4" d="M314.1,280.8c-.5.5-8.2,17.1-9.1,22.6s-7.2,38.5-7.5,39.9-13.5,4.3-14.4,4.6,1,2.9,3.9,3.6,11.1,4.1,13,2.2,4.6-12.8,5.3-14,14.3-33.1,14.3-33.1c0,0,6.9-15.3,8.4-16.8s-1.7-7.9-2.9-9.8-7.5-3.1-10.8.7Z"/>
    <path class="st4" d="M312.7,281s3.4,16.1,5,21.9c1.6,4.8,3.9,9.4,7,13.5,1.9,2.6,11.3,26,11.3,26l1.4,3.6s-.5,1.4-3.1,3.4-10.1,5-8.2,5.8,9.6.7,13.2.5c3.1-.2,6-1.6,8.2-3.9,1.5-1.7-2.4-6.5-2.4-7.5s-8.4-30.3-8.9-31.8-2.9-11.8-2.9-11.8v-11.8s1.2-2.2,1.2-7-3.6-5.8-3.6-5.8l-19.7,1.9,1.4,2.9Z"/>
    <path class="st1" d="M311,279.6s.5,4.1,1.9,4.3,16.4,4.3,22.9-.5c0,0,1.2-3.6.5-4.6s-2.4-.5-11.1-.5-14.2,0-14.2,1.2Z"/>
    <path class="st1" d="M333.1,225.7s-8.9,1.2-12.8,5-7.2,10.8-8.9,17.3-2.9,30.3-.5,31.5,22.6,2.4,26,1-.2-12.8-.2-17.1,3.9-19,3.1-27.2-6.8-10.6-6.8-10.6Z"/>
    <path class="st4" d="M301,250.7c-.1-9.9-4.1-18.4-9.5-22v-2h-14.8c-8.3.2-15,11.1-14.8,24.4.2,13.3,7,24.1,15.3,24h14.8v-2.1c5.2-3.9,9.1-12.4,9-22.3Z"/>
    <path class="st5" d="M307.6,250.6c-.1-10.4-4.1-19.3-9.8-23.1v-2.1h-6.3c-8.8.2-15.7,11.6-15.6,25.6.2,14,7.4,25.3,16.1,25.2h6.3v-2.2c5.5-4,9.3-13,9.2-23.3Z"/>
    <path class="st6" d="M314,250.6c.1,14-6.8,25.4-15.6,25.5s-16-11.2-16.1-25.2,6.8-25.4,15.6-25.5,15.9,11.2,16.1,25.2Z"/>
    <path class="st4" d="M310.4,250.1c0,6.6-3.2,12.1-7.4,12.1s-7.6-5.3-7.6-12,3.2-12,7.4-12.1,7.6,5.4,7.6,12Z"/>
    <path class="st4" d="M428.2,300c.8-6.2,1.2-12.4,1-18.6-3.2,1.5-22.2,2-24,2.1s-20.7-.6-24-2.1c-.1,6.2.2,12.4,1,18.6,1.3,8.1,12.8,40.6,13.1,42.1.3,1.5.8,3,1.3,4.5,0,0-6.5,4.7-9.4,6.5s-.8,2.6,2.1,2.6,8.9-.8,10.7-.8,4.4-1.4,5.1-1.8c.7.3,3.5,1.8,5.1,1.8s7.9.8,10.7.8,5-.8,2.1-2.6-9.4-6.5-9.4-6.5c.5-1.5,1-2.9,1.3-4.5.3-1.6,11.8-34.1,13.1-42.1Z"/>
    <path class="st1" d="M401.3,230.5s-10.1,3.3-15.4,6.6-10.5,21.3-10.5,22c-.3,1.3-.7,2.5-1.2,3.7,0,0-5.2-1.2-6.3,3.1s5.2,10,8.5,10.1,4.4-.9,4.4-.9c0,0-2.1,4.2-1.2,5.9s8.2,8.2,22.7,8,25-2.6,26.5-4.7,1.8-6.5,1.8-6.5c0,0,5.4-1.4,7.3-4.9s1.6-7.2.5-10.8-6.5-14.3-10.1-20.2-11.4-9.2-15-10.3-9.6-1.2-12.1-1.2Z"/>
    <path class="st5" d="M404.4,245.2c1.5-.5,6-4.5,7.8-8.6.7-1.5,1.2-3.2,1.5-4.9h-.2c-3.7-1.1-9.6-1.3-12-1.3,0,0-2.1.7-4.9,1.8,0,2.2.4,4.3,1.2,6.3,1.6,4,5.3,7.1,6.8,6.6Z"/>
    <path class="st7" d="M421.1,253.4s4.2,22.4,8.9,24.6"/>
    <path class="st7" d="M380.9,275.2s5.2-19.7,5.6-21.6"/>
    <path class="st7" d="M427.8,263.5s-2.9.6-2.9,2.8"/>
    <path class="st7" d="M378.6,263.8s3.2,2.1,2.9,5.3"/>
    <path class="st1" d="M400.2,355c1.6,0,4.4-1.4,5.1-1.8.7.3,3.5,1.8,5.1,1.8s7.9.8,10.7.8,5-.8,2.1-2.6c-2.5-1.6-7.8-5.4-9.1-6.3-3.1,2.8-9.2,2.1-9.2,2.1-1.2-.2-2.5-.4-3.7-.8-1.8-.5-4.5-1.6-4.5-1.6,0,0-6.5,4.7-9.4,6.5s-.8,2.6,2.1,2.6,8.9-.8,10.7-.8Z"/>
    <line class="st8" x1="404.9" y1="346.7" x2="404.9" y2="301"/>
    <polyline class="st7" points="405.3 353.2 404.9 348.9 404.9 346.7"/>
    <line class="st8" x1="401.2" y1="299.4" x2="408.8" y2="299.4"/>
    <path class="st4" d="M391.3,204.3s-5.4,3.3-4.6,6.1,3.3,3.4,2.7,5-2.4,2.6-.3,3.6c1.2.5,2.5,1,3.8,1.2,0,0,2,6.9,5.4,8.2s9.4.4,13.6-.1c2.9-.3,5.4-2.3,6.1-5.2.4-1.5-1.8.3-2.9-1.4s.5-5.9,1.8-9.5-2.5-10.6-7.2-12.9-13.9-1.1-18.5,5Z"/>
    <path class="st5" d="M400.5,228c-.7,2.3-1.2,4.6-1.4,7-.2,3,2.3,6.3,4.9,6.1s4.9-5.4,5.2-8-.9-9.6-.9-9.6c0,0-4,.2-5.6,1.6-.9.8-1.7,1.8-2.3,2.9Z"/>
    <path class="st5" d="M396.9,208.1s.1,4.1,4.2,8c2.5,2.4,5.4,4.2,8.6,5.4,0,.9-.3,1.8-.7,2.6-.4.7-1.1,1.1-1.9,1h-1.4s-2,4.7-4.4,5.4-8.4.2-9.2-5.8-1-10.9-.3-12.1,5-4.5,5-4.5Z"/>
    <path class="st5" d="M439.7,260.8c.6-1.3,1-2.6,1.1-4,0-1.8-3.4-4.4-4-5.1s-1.2-.6-1.4.3c0,1,.4,2,1.2,2.7.5.4.9.9,1,1.6,0,.5-1.1,2.7-.5,4.1s2.3,1.9,2.6.4Z"/>
    <path class="st2" d="M304.3,250.6s14.7,4.7,23.6,15.7c8.9,11,14.7,9.4,25.7,5.8s15.2-16.8,30.4-5.8c15.2,11,18.3,15.2,30.9,8.9s19.4-21.5,30.9-16.2,6.3,32,7.3,45-.5,45.6,2.1,49.8,29.3,1,29.3,1"/>
    <path class="st1" d="M331.9,233.1s-2.9-4.8-7.2-3.5c-4.6,1.3-6.9,7.9-8,11.9s-1.8,8.5-3.8,12.3c0,0-8.7-.1-13.5-1.6-3.7-1.1-7.3-2.5-10.9-4,0,0-1.7-2.4-2.9-2.9s-4.4-1.4-4.6-.7,3.6,3.1,3.6,3.1c0,0-7.2,1-7.9,1.8s5.1,3.1,5.1,3.1c0,0,2.2.7,7.5-.6,0,0,19.4,12.3,23.2,13.7s6,1.9,8.6-3.2,11.4-17.7,12.8-22.8"/>
    <path class="st5" d="M293.5,250.2c-2.8-1.1-5-2-5-2,0,0-1.7-2.4-2.9-2.9s-4.4-1.4-4.6-.7,3.6,3.1,3.6,3.1c0,0-7.2,1-7.9,1.8s5.1,3.1,5.1,3.1c0,0,2.2.7,7.5-.6l2.7,1.7,1.5-3.6Z"/>
    <path class="st5" d="M368.2,262.6c-.6-1.3-1-2.6-1.1-4,0-1.8,3.4-4.4,4-5.1s1.2-.6,1.4.3c0,1-.4,2-1.2,2.7-.5.4-.9.9-1,1.6,0,.4,1.1,2.7.5,4.1s-2.2,1.8-2.6.4Z"/>
    <path class="st5" d="M370.5,257.1s-2.8,5.1-1.2,7,3.2-4.2,3.5-5.8-1.3-3.3-2.3-1.2Z"/>
    <path class="st5" d="M372.8,259s-2.8,5.1-1.2,7,3.2-4.2,3.5-5.8-1.3-3.4-2.3-1.2Z"/>
    <path class="st5" d="M375.4,259.4s-2.8,5.1-1.2,7,3.2-4.2,3.5-5.8-1.3-3.3-2.3-1.2Z"/>
    <path class="st5" d="M378.6,259.5s-2.6,4-1.2,5.5,3-3.2,3.2-4.6-1.1-2.7-2.1-.9Z"/>
    <path class="st5" d="M437.9,257.4s2.8,5.1,1.2,7-3.2-4.2-3.5-5.8,1.3-3.3,2.3-1.2Z"/>
    <path class="st5" d="M435.5,259.1s2.8,5.1,1.2,7-3.2-4.2-3.5-5.8,1.3-3.3,2.3-1.2Z"/>
    <path class="st5" d="M433,259.6s2.8,5.1,1.2,7-3.2-4.2-3.5-5.8,1.3-3.3,2.3-1.2Z"/>
    <path class="st5" d="M429.8,259.7s2.6,4,1.2,5.5-3-3.2-3.2-4.6,1.1-2.7,2.1-.9Z"/>
    <path class="st5" d="M85.7,316.6v5.7c-2,2.2-3.4,4.8-4.1,7.6-1.2,4.6-5,24.6-4,25.1s10.4,2.7,13.4,2.2c3.4-.5,6.4-.3,4.6-2.2s-10.8-7.2-10.8-7.2c0,0,10-14.5,12.2-19.8s2.6-13.6,2.6-13.6l-13.4-.5-.5,2.7Z"/>
    <path class="st4" d="M91,357.3c3.4-.5,6.4-.3,4.6-2.2s-10.8-7.2-10.8-7.2l-.3,2.1-6.6-.8c-.5,3.3-.7,5.8-.3,6,1.1.5,10.4,2.6,13.4,2.2Z"/>
    <path class="st5" d="M118.6,319.6l1.6,2.8c-1.3,2.5-1.5,5.4-.5,8.1,1.6,4.8,5.2,22.5,5.2,23.6s2.2,1.7,4,1.7,6.7.3,7.4.3,5.7.9,7.4-.2-2.2-3.1-4.8-4.3-8.3-4.3-8.3-4.3c0,0,1.4-14.1,1.4-20.3s1.4-8.3-.5-12-13.8,1.7-13.8,1.7l1,2.9Z"/>
    <path class="st4" d="M138.7,351.6c-2.6-1.2-8.3-4.3-8.3-4.3l-.7,2.6-5.5,1c.3,1.7.5,2.9.5,3.1,0,1,2.2,1.7,4,1.7s6.7.3,7.4.3,5.7.9,7.4-.2-2.2-3.1-4.8-4.3Z"/>
    <path class="st5" d="M109.3,205c-1.3-2.3-2.9-4.5-4.6-6.5-2.4-2.7-9.8-2.5-13.1,1s-2.2,9.8-1,11.6,3.7,10.1,3.7,10.1l.6,5.9,13.8,4.9-2.8-9.6s5.3-1,5.8-2.7-.9-7.3-.9-7.3c0,0,1.8-1.2,1.6-2.2s-3.1-5.2-3.1-5.2Z"/>
    <path class="st4" d="M93.4,211.4s2.4,2,3.7-.3,2.3-4.5,2.3-6.5-4.8-3.6-1.6-4.9,5.6,1.6,7-1.3.1-3.2-7.6-3.2-11.6,3.9-10,8.7c1.3,3.6,2.9,7,4.8,10.3l1.5-2.9Z"/>
    <path class="st7" d="M109.8,208.4c0,2-1.7,3.7-3.7,3.7s-3.7-1.7-3.7-3.7c0-2,1.7-3.7,3.7-3.7s3.7,1.7,3.7,3.7h0Z"/>
    <path class="st7" d="M109.2,205.1c.4-.2.9-.3,1.4-.3,1.9,0,3.5,1.6,3.5,3.5,0,1.3-.7,2.4-1.8,3"/>
    <line class="st7" x1="102.3" y1="208.4" x2="93.4" y2="211.4"/>
    <path class="st5" d="M96,213.3s-1.8-3.7-3.6-3-.9,6.5.9,7.1c1.2.3,2.5,0,3.4-.9,0,0,1.5,3.1,3.3,4"/>
    <path class="st1" d="M84.3,280l-1.1,14.2-3.3,21s7.8,6.1,15,6.1,9.2-.9,9.2-.9l4.1-21.6,4.1,22.7s8-1.3,13.3-2.6c3.7-1,7.2-2.6,10.3-4.8l-10.7-27.9-2.3-14.4s-12,1.1-19.2,1.5-16.8-1.5-16.8-1.5l-2.5,8.1Z"/>
    <path class="st4" d="M91.9,223.2s17,5.9,22.2,11.7c2.9,3.2,6.2,25.1,7.3,30.5s3.2,16,3.2,16c0,0-10.4,4.7-18.4,4.9s-23.4-3.5-23.4-3.5c0,0,1.8-23.7,1.8-34.8s.2-18.2,2-21.7c0,0,3-3.3,5.2-3Z"/>
    <path class="st7" d="M87.5,284.4s.9,15.5,0,21.2c-.6,3.7-1.8,7.3-3.3,10.7"/>
    <path class="st7" d="M87.8,291.8c2.8-1,4.9-3.4,5.5-6.3"/>
    <path class="st7" d="M80.8,312.3s9.2,7.9,23.6,5"/>
    <path class="st7" d="M111.8,316.9s15.1-1.7,21.8-6.1"/>
    <path class="st4" d="M179.6,216s-1.5,1.1-6.6,4.8-1.1,9.3-1.1,9.3c0,0-3.6.6-8.5,5.7s2.2,13.9,8.7,15.2,14.2-6.8,16.6-14.3-.7-18.9-2.3-21.3-6.9.5-6.9.5Z"/>
    <path class="st4" d="M198.8,215s2.5-3.9.2-9.6-9.1-8.3-15.8-4.1c-4.6,2.7-6.7,8.2-5.3,13.3.6,2.6,3.9,6.6,4.6,6.7s6.7,2.2,10.8.3,5.4-6.6,5.4-6.6Z"/>
    <path class="st6" d="M169.4,347s4.8,7.4,13,8.6.8-6.1-.6-7.3-11.3-3.5-12.4-1.4Z"/>
    <path class="st6" d="M213.4,348.9s9.1,2.2,8.4,4.2-8.1,1.8-12.4.7-8.4-2.8-7.8-4.6,11.9-.3,11.9-.3Z"/>
    <path class="st1" d="M187.6,229.7s-12.1,1.8-14.4,6.1.9,27.7.9,27.7c0,0-5.2,11.4-5.2,18.8s3.2,20.3,2.9,23.5-3.6,40-3.6,41,7,3.2,17.1,4.4,29.4-2.4,29.4-2.4c0,0-.4-21.7.6-34.6s-.4-24.6-3-29.4-14.5-22.2-14.5-22.2c0,0,5.8-10.5,6.2-15.1s-1.5-7-5.9-12.3c-2.6-3.2-6.4-5.1-10.5-5.4Z"/>
    <path class="st6" d="M197.8,262.6s5.8-10.5,6.2-15.1-1.5-7-5.9-12.3c-.2-.3-.4-.5-.6-.7h-.2c-4.5,7.5-19.4,20.1-23.8,23.7.3,3.1.6,5.3.6,5.3,0,0-5.2,11.4-5.2,18.8,0,3.4.4,6.7,1,10,10.5-6,24.6-17.2,32.2-23.5-2.4-3.5-4.2-6.2-4.2-6.2Z"/>
    <path class="st5" d="M185.3,221.1c.3,2.7.5,5.5.6,8.3-.2,2.1.5,6.7,4,8.2s5.7-.6,5.7-2.6c-.1-1.7-.5-3.4-1-5v-5.6c.1,0-5.9-3.8-9.2-3.2Z"/>
    <path class="st5" d="M182.2,217.4s-2.6-2.3-2.6,1,2.9,4.3,3.6,4.6c.6,0,1.1,0,1.6-.4,0,0,4.7,4,8.4,4.3s5.3-1.5,6.1-8.3-6.1-13.7-6.1-13.7c0,0-6,11.1-10.9,12.5Z"/>
    <path class="st5" d="M125,281.2c0-1.2.2-2.3.6-3.4.6-1.4,4-2.1,4.8-2.4s1.1,0,.9.7c-.4.8-1,1.4-1.8,1.6-.5.1-1,.4-1.3.8-.2.3,0,2.4-1,3.2s-2.4.6-2.1-.6Z"/>
    <path class="st2" d="M201.6,251.1s-12-1.6-17.3,6.8c-5.3,8.4-15.2,37.7-33.5,42.4s-23.6-33-34.6-32c-10.5,1-17.8,0-24.1,11.5-3.4,6.2-20.2,73.5-28.1,74.2-25.3,2.2-41.6.8-41.6.8"/>
    <path class="st4" d="M92.7,223.7s-2.8-1.1-6.5,1.1-13.7,26.4-12.9,29,11.3,7.4,17.2,9,16.6,3.7,16.6,3.7c0,0,3.3,5.2,4.4,5.4,1.6,0,3.2-.2,4.8-.5,0,0,2,1.7,2.8-.2s-.7-4.2-2.4-6.1-8.7-2.8-8.7-2.8l-19-13.1,8-14.8"/>
    <path class="st5" d="M111.5,271.9c1.6,0,3.2-.2,4.8-.5,0,0,2,1.7,2.8-.2s-.7-4.2-2.4-6.1-8.7-2.8-8.7-2.8l-19-13.1,2.8-5.3c-7.1-4.4-11.8-4.1-14.4-3.2-2.6,6.1-4.5,11.9-4.2,13.1.7,2.6,11.3,7.4,17.2,9s16.6,3.7,16.6,3.7c0,0,3.3,5.2,4.4,5.4Z"/>
    <path class="st4" d="M230.5,251.5c-.8-8.7-5-15.9-10-18.8l-.2-1.8-13.1,1.2c-7.4.7-12.4,10.8-11.3,22.5,1.1,11.8,7.9,20.7,15.3,20l13.1-1.2-.2-1.8c4.4-3.7,7.2-11.5,6.4-20.2Z"/>
    <path class="st5" d="M236.4,251c-.9-9.2-5-16.7-10.3-19.7l-.2-1.9-5.6.5c-7.7.7-13.1,11.3-11.9,23.7,1.1,12.4,8.3,21.8,16.1,21.1l5.6-.5-.2-1.9c4.6-3.9,7.3-12.1,6.5-21.3Z"/>
    <path class="st5" d="M242,250.4c1.1,12.4-4.2,22.9-11.9,23.7s-14.9-8.7-16.1-21.1,4.2-23,11.9-23.7,14.9,8.7,16.1,21.1Z"/>
    <path class="st6" d="M248,243.2l-21.7,2c-1.3.1-2.4-.8-2.5-2.1,0,0,0,0,0,0h0c-.1-1.3.8-2.4,2.1-2.5,0,0,0,0,0,0l21.7-2c1.3-.1,2.4.8,2.5,2.1,0,0,0,0,0,0h0c.1,1.3-.8,2.4-2.1,2.5,0,0,0,0,0,0Z"/>
    <path class="st6" d="M249.6,260.4l-21.7,2c-1.3.1-2.4-.8-2.5-2.1h0c-.1-1.3.8-2.4,2.1-2.5,0,0,0,0,0,0l21.7-2c1.3-.1,2.4.8,2.5,2.1h0c.1,1.3-.8,2.4-2.1,2.5,0,0,0,0,0,0Z"/>
    <path class="st1" d="M180.1,231.3s-5.2,1-7.7,4-7.5,26.2-6.4,28.8,19.9,6,25.7,6.5c4.7.2,9.3,0,13.9-.6,0,0,5-.1,6.4-.4s3.9-1.6,3.9-2.1-.2-1.7-2.1-1.9-5.9-1.5-6.4-1.5c1.2-.3,2.4-.6,3.6-.7,0,0,.3-1-1.8-1s-3.9-.1-4.7,1c-.6.9-1,1.8-1.4,2.8,0,0-11.6.8-17.8-2.2s-8.2-4.1-8.2-4.1l4.5-18"/>
    <path class="st5" d="M212,269.7c1.4-.2,3.9-1.6,3.9-2.1s-.2-1.7-2.1-1.9-5.9-1.5-6.4-1.5c1.2-.3,2.4-.6,3.6-.7,0,0,.3-1-1.8-1s-3.9-.1-4.7,1c-.6.9-1,1.8-1.4,2.8,0,0-11.6.8-17.8-2.2s-8.2-4.1-8.2-4.1l2.7-11c-3.6-1.5-7.3-2.4-11.2-2.8-1.9,7.5-3.4,16.4-2.7,18,1.2,2.7,19.9,6,25.7,6.5,4.7.2,9.3,0,13.9-.6,0,0,5,0,6.4-.3Z"/>
    <path class="st5" d="M127.5,279.2s-3.9,2.9-3.3,4.8,3.8-2,4.6-3.1.2-2.9-1.3-1.6Z"/>
    <path class="st5" d="M128.3,281.8s-3.8,2.9-3.3,4.8,3.8-2,4.6-3.1.2-2.9-1.3-1.6Z"/>
    <path class="st5" d="M130.1,283.5s-3.8,2.9-3.3,4.8,3.8-2,4.6-3.1.2-2.9-1.3-1.6Z"/>
    <path class="st5" d="M131.6,284.9s-3.3,2.1-2.8,3.7,3.3-1.4,4-2.3.1-2.4-1.2-1.4Z"/>
  </g>
</svg>